<?xml version="1.0" encoding="utf-8"?>
<svg xmlns="http://www.w3.org/2000/svg" viewBox="0 0 24 24" fill="#576d75"><path d="M19,3h-6c-1.103,0-2,0.897-2,2v4H5c-1.103,0-2,0.897-2,2v8c0,1.103,0.897,2,2,2h14c1.103,0,2-0.897,2-2V5 C21,3.897,20.103,3,19,3z M17,12c0,2.209-1.791,4-4,4h-3v1.115c0,0.438-0.53,0.658-0.84,0.348l-1.947-1.947 C7.071,15.373,7,15.187,7,15c0-0.187,0.071-0.374,0.214-0.516l1.947-1.947c0.31-0.31,0.84-0.09,0.84,0.348V14h3c1.105,0,2-0.895,2-2 V9c0-0.552,0.448-1,1-1h0c0.552,0,1,0.448,1,1V12z" fill="#576d75"/></svg>
