<?xml version="1.0" encoding="utf-8"?>
<svg xmlns="http://www.w3.org/2000/svg" viewBox="0 0 30 30" fill="#f7f7f7"><path d="M 16.900391 2 A 1.0001 1.0001 0 0 0 15.927734 2.8203125 C 15.927734 2.8203125 15.7077 4.0012502 15.271484 5.1425781 C 15.053377 5.7132421 14.776444 6.2650784 14.511719 6.6035156 C 14.246993 6.9419528 14.083333 7 14 7 C 13.75 7 13.672791 6.9475549 13.546875 6.8222656 C 13.420959 6.6969764 13.284376 6.4602477 13.189453 6.1796875 C 12.999607 5.6185672 12.984375 4.9941406 12.984375 4.9941406 A 1.0001 1.0001 0 0 0 11.087891 4.5585938 C 10.16482 6.4328487 8 9.5555556 8 13 C 8 16.187295 10.244141 18.654297 10.244141 18.654297 A 1.0001 1.0001 0 1 0 11.755859 17.345703 C 11.755859 17.345703 10 15.196705 10 13 C 10 11.216889 10.877707 9.3605825 11.773438 7.6289062 C 11.898718 7.8358422 11.947426 8.0518835 12.136719 8.2402344 C 12.576116 8.6774451 13.25 9 14 9 C 14.916667 9 15.617351 8.4330472 16.085938 7.8339844 C 16.554524 7.2349216 16.87903 6.5367579 17.138672 5.8574219 C 17.19395 5.7127897 17.169836 5.7144573 17.21875 5.5722656 C 17.78956 6.5411525 18.432392 7.6347367 18.847656 8.453125 C 19.567019 9.8708214 20 11.166667 20 13 C 20 15.146855 18.238281 17.351563 18.238281 17.351562 A 1.0003438 1.0003438 0 1 0 19.761719 18.648438 C 19.761719 18.648437 22 16.153145 22 13 C 22 10.833333 21.433747 9.1291786 20.630859 7.546875 C 19.827972 5.9645714 18.812414 4.4816548 17.796875 2.5371094 A 1.0001 1.0001 0 0 0 16.900391 2 z M 15 13 C 13.895 13 13 13.448 13 14 L 13.917969 26.003906 C 13.964969 26.567906 14.435 27 15 27 C 15.565 27 16.035031 26.567906 16.082031 26.003906 L 17 14 C 17 13.448 16.105 13 15 13 z" fill="#f7f7f7"/></svg>
